#define b11701749167_width 48
#define b11701749167_height 48
static char b11701749167_bits[] = {
  0x00, 0x00, 0xFC, 0x3F, 0x00, 0x00, 0x00, 0x00, 0x04, 0x20, 0x00, 0x00, 
  0x00, 0x00, 0x04, 0x20, 0x00, 0x00, 0x00, 0x00, 0x04, 0x20, 0x00, 0x00, 
  0x00, 0x00, 0x04, 0x20, 0x00, 0x00, 0x00, 0x00, 0x04, 0x20, 0x00, 0x00, 
  0x00, 0x00, 0x08, 0x10, 0x00, 0x00, 0x00, 0x00, 0x04, 0x20, 0x00, 0x00, 
  0x00, 0x00, 0x02, 0x40, 0x00, 0x00, 0x00, 0x00, 0x01, 0x80, 0x00, 0x00, 
  0x00, 0x00, 0x01, 0x80, 0x00, 0x00, 0x00, 0x80, 0x00, 0x00, 0x01, 0x00, 
  0x00, 0x40, 0x00, 0x00, 0x02, 0x00, 0x00, 0x20, 0x00, 0x00, 0x04, 0x00, 
  0x00, 0x20, 0x00, 0x00, 0x04, 0x00, 0x00, 0x10, 0x00, 0x00, 0x02, 0x00, 
  0x00, 0x10, 0x00, 0x00, 0x01, 0x00, 0x00, 0x08, 0x00, 0x80, 0x18, 0x00, 
  0x00, 0x08, 0x00, 0x40, 0x14, 0x00, 0x00, 0x08, 0x00, 0x20, 0x12, 0x00, 
  0x00, 0x04, 0x00, 0x10, 0x21, 0x00, 0x00, 0x04, 0x00, 0x88, 0x20, 0x00, 
  0x00, 0x04, 0x00, 0x44, 0x20, 0x00, 0x00, 0x04, 0x00, 0x22, 0x20, 0x00, 
  0x00, 0x02, 0x00, 0x11, 0x40, 0x00, 0x00, 0x02, 0x00, 0x09, 0x40, 0x00, 
  0x00, 0x02, 0x00, 0x06, 0x40, 0x00, 0x00, 0x02, 0x00, 0x00, 0x40, 0x00, 
  0x00, 0x02, 0x00, 0x00, 0x40, 0x00, 0x00, 0x04, 0x00, 0x00, 0x20, 0x00, 
  0x00, 0x04, 0x00, 0x00, 0x20, 0x00, 0x00, 0x04, 0x00, 0x00, 0x20, 0x00, 
  0x00, 0x08, 0x00, 0x00, 0x10, 0x00, 0x00, 0x10, 0x00, 0x00, 0x08, 0x00, 
  0x00, 0x60, 0x00, 0x00, 0x06, 0x00, 0x00, 0x80, 0x00, 0x00, 0x01, 0x00, 
  0x00, 0x80, 0x00, 0x00, 0x01, 0x00, 0x00, 0x80, 0x00, 0x00, 0x01, 0x00, 
  0x00, 0x80, 0xFF, 0xFF, 0x01, 0x00, 0x00, 0x00, 0x00, 0x00, 0x00, 0x00, 
  0x00, 0x00, 0x00, 0x00, 0x00, 0x00, 0x00, 0x00, 0x00, 0x00, 0x00, 0x00, 
  0x00, 0xFE, 0xFF, 0xFF, 0x7F, 0x00, 0x00, 0x02, 0x00, 0x00, 0x40, 0x00, 
  0x00, 0x02, 0x00, 0x00, 0x40, 0x00, 0x00, 0x02, 0x00, 0x00, 0x40, 0x00, 
  0x00, 0x02, 0x00, 0x00, 0x40, 0x00, 0x00, 0xFE, 0xFF, 0xFF, 0x7F, 0x00, 
  };
