#define 64ae29bceea649c3a7514f173774e53f8SZQp4ioX1yJBEnJ_width 40
#define 64ae29bceea649c3a7514f173774e53f8SZQp4ioX1yJBEnJ_height 40
static char 64ae29bceea649c3a7514f173774e53f8SZQp4ioX1yJBEnJ_bits[] = {
  0x00, 0x00, 0x00, 0x00, 0x00, 0x00, 0x00, 0x00, 0x00, 0x00, 0x00, 0x00, 
  0x1C, 0x00, 0x00, 0x00, 0x00, 0x7E, 0x00, 0x00, 0x00, 0x00, 0x66, 0x00, 
  0x00, 0x00, 0x00, 0x62, 0x00, 0x00, 0x00, 0x00, 0x7E, 0x00, 0x00, 0x00, 
  0x00, 0x3E, 0x00, 0x00, 0x00, 0x00, 0xE7, 0x00, 0x00, 0x00, 0xC0, 0xC1, 
  0x01, 0x00, 0x00, 0xE0, 0x00, 0x03, 0x00, 0x00, 0x30, 0x00, 0x06, 0x00, 
  0x00, 0x18, 0x00, 0x0C, 0x00, 0x00, 0x18, 0x18, 0x18, 0x00, 0x00, 0x0C, 
  0x18, 0x10, 0x00, 0x00, 0x0C, 0x18, 0x30, 0x00, 0x00, 0x0C, 0x7F, 0x30, 
  0x00, 0x00, 0x0C, 0x18, 0x30, 0x00, 0x00, 0x0C, 0x18, 0x30, 0x00, 0x00, 
  0x0C, 0x08, 0x30, 0x00, 0x00, 0x0C, 0x00, 0x18, 0x00, 0x00, 0x18, 0x00, 
  0x18, 0x00, 0x00, 0x18, 0x00, 0x0C, 0x00, 0x00, 0xF0, 0xFF, 0x0F, 0x00, 
  0x00, 0x60, 0x00, 0x07, 0x00, 0x00, 0x30, 0x00, 0x04, 0x00, 0x00, 0x30, 
  0xFF, 0x0C, 0x00, 0x00, 0xF0, 0xFF, 0x0F, 0x00, 0x00, 0x18, 0x00, 0x18, 
  0x00, 0x00, 0xF8, 0x81, 0x1F, 0x00, 0x00, 0xF0, 0xFF, 0x0F, 0x00, 0x80, 
  0x0F, 0xF7, 0xF0, 0x01, 0xF0, 0xFF, 0xC3, 0xFF, 0x0F, 0x3C, 0x70, 0x00, 
  0x0F, 0x3E, 0x0C, 0x00, 0x1C, 0x00, 0x38, 0x98, 0x0F, 0xFF, 0xF0, 0x19, 
  0xF0, 0xFF, 0xE3, 0xFF, 0x0F, 0x30, 0x00, 0x00, 0x00, 0x0E, 0x00, 0x00, 
  0x00, 0x00, 0x00, 0x00, 0x00, 0x00, 0x00, 0x00, };
