#define k11701749223_width 48
#define k11701749223_height 48
static char k11701749223_bits[] = {
  0x00, 0x00, 0xE0, 0x07, 0x00, 0x00, 0x00, 0x00, 0x20, 0x04, 0x00, 0x00, 
  0x00, 0x00, 0x20, 0x04, 0x00, 0x00, 0x00, 0x00, 0x20, 0x04, 0x00, 0x00, 
  0x00, 0x00, 0x3E, 0x7C, 0x00, 0x00, 0x00, 0x00, 0x01, 0x80, 0x00, 0x00, 
  0x00, 0x00, 0x01, 0x80, 0x00, 0x00, 0x00, 0x00, 0x01, 0x80, 0x00, 0x00, 
  0x00, 0x00, 0x01, 0x80, 0x00, 0x00, 0x00, 0x00, 0x01, 0x80, 0x00, 0x00, 
  0x00, 0x00, 0x3E, 0x7C, 0x00, 0x00, 0x00, 0x00, 0x20, 0x04, 0x00, 0x00, 
  0x00, 0x00, 0x20, 0x04, 0x00, 0x00, 0x00, 0x00, 0x20, 0x04, 0x00, 0x00, 
  0x00, 0x00, 0x20, 0x04, 0x00, 0x00, 0xF8, 0xFF, 0x3F, 0xFC, 0xFF, 0x1F, 
  0x08, 0x00, 0x00, 0x00, 0x00, 0x10, 0x08, 0x00, 0x00, 0x00, 0x00, 0x10, 
  0x08, 0x00, 0x00, 0x00, 0x00, 0x10, 0x08, 0x00, 0x00, 0x00, 0x00, 0x10, 
  0x08, 0x00, 0x00, 0x00, 0x00, 0x10, 0x18, 0x00, 0x00, 0x00, 0x00, 0x18, 
  0x10, 0x00, 0x00, 0x00, 0x00, 0x08, 0x10, 0x00, 0x00, 0x00, 0x00, 0x08, 
  0x30, 0x00, 0x00, 0x00, 0x00, 0x0C, 0x20, 0x00, 0x00, 0x00, 0x00, 0x04, 
  0x20, 0x00, 0x00, 0x00, 0x00, 0x04, 0x60, 0x00, 0x00, 0x00, 0x00, 0x06, 
  0x40, 0x00, 0x00, 0x00, 0x00, 0x02, 0x40, 0x00, 0x00, 0x00, 0x00, 0x02, 
  0xC0, 0x00, 0x00, 0x00, 0x00, 0x03, 0x80, 0x00, 0x00, 0x00, 0x00, 0x01, 
  0x80, 0x00, 0x00, 0x00, 0x00, 0x01, 0x80, 0x01, 0x00, 0x00, 0x80, 0x01, 
  0x00, 0x01, 0x00, 0x00, 0x80, 0x00, 0x00, 0x01, 0x00, 0x00, 0x80, 0x00, 
  0x00, 0x03, 0x00, 0x00, 0xC0, 0x00, 0x00, 0x02, 0x00, 0x00, 0x40, 0x00, 
  0x00, 0xFE, 0xFF, 0xFF, 0x7F, 0x00, 0x00, 0x00, 0x00, 0x00, 0x00, 0x00, 
  0x00, 0x00, 0x00, 0x00, 0x00, 0x00, 0x00, 0x00, 0x00, 0x00, 0x00, 0x00, 
  0xC0, 0xFF, 0xFF, 0xFF, 0xFF, 0x03, 0x40, 0x00, 0x00, 0x00, 0x00, 0x02, 
  0x40, 0x00, 0x00, 0x00, 0x00, 0x02, 0x40, 0x00, 0x00, 0x00, 0x00, 0x02, 
  0x40, 0x00, 0x00, 0x00, 0x00, 0x02, 0xC0, 0xFF, 0xFF, 0xFF, 0xFF, 0x03, 
  };
