#define n11701749267_width 48
#define n11701749267_height 48
static char n11701749267_bits[] = {
  0x00, 0x00, 0x00, 0x00, 0x00, 0x00, 0x00, 0x00, 0x00, 0x00, 0x00, 0x00, 
  0x00, 0x00, 0x00, 0x00, 0x00, 0x00, 0xC0, 0xFF, 0xFF, 0x07, 0x00, 0x00, 
  0x40, 0x00, 0x00, 0x3C, 0x00, 0x00, 0x40, 0x00, 0x00, 0x40, 0x00, 0x00, 
  0x40, 0x00, 0x00, 0x80, 0x01, 0x00, 0x80, 0x00, 0x00, 0x00, 0x03, 0x00, 
  0x40, 0x00, 0x00, 0x00, 0x04, 0x00, 0x40, 0x00, 0x00, 0x00, 0x08, 0x00, 
  0x40, 0x00, 0x00, 0x00, 0x08, 0x00, 0x40, 0x00, 0x00, 0x00, 0x10, 0x00, 
  0x40, 0x1E, 0x00, 0x00, 0x20, 0x00, 0x40, 0x12, 0x00, 0x00, 0x20, 0x00, 
  0x40, 0x12, 0x00, 0x00, 0x20, 0x00, 0x40, 0x1E, 0x00, 0x00, 0x40, 0x00, 
  0x40, 0x00, 0x00, 0x00, 0x40, 0x00, 0x40, 0x00, 0x00, 0x00, 0x40, 0x00, 
  0x40, 0x00, 0x00, 0x00, 0x40, 0x00, 0x40, 0x00, 0x10, 0x00, 0x40, 0x00, 
  0x40, 0x00, 0x28, 0x00, 0x40, 0x00, 0x40, 0x00, 0x24, 0x00, 0x40, 0x00, 
  0x40, 0x00, 0x22, 0x00, 0x40, 0x00, 0x40, 0x00, 0x12, 0x00, 0x40, 0x00, 
  0x40, 0x00, 0x12, 0x00, 0x40, 0x00, 0x80, 0x01, 0x11, 0x00, 0x40, 0x00, 
  0x00, 0x86, 0x09, 0x00, 0x40, 0x00, 0x00, 0x78, 0x04, 0x00, 0x40, 0x00, 
  0x00, 0x00, 0x02, 0x00, 0x40, 0x00, 0x00, 0x80, 0x01, 0x00, 0x40, 0x00, 
  0x00, 0x60, 0x00, 0x00, 0x40, 0x00, 0x00, 0x18, 0x00, 0x00, 0x40, 0x00, 
  0x00, 0x04, 0x00, 0x00, 0x40, 0x00, 0x00, 0x02, 0x00, 0x00, 0x40, 0x00, 
  0x00, 0x02, 0x00, 0x00, 0x40, 0x00, 0x00, 0x02, 0x00, 0x00, 0x40, 0x00, 
  0x00, 0x02, 0x00, 0x00, 0x40, 0x00, 0x00, 0x02, 0x00, 0x00, 0x40, 0x00, 
  0x00, 0xFE, 0xFF, 0xFF, 0x7F, 0x00, 0x00, 0x00, 0x00, 0x00, 0x00, 0x00, 
  0x00, 0x00, 0x00, 0x00, 0x00, 0x00, 0x00, 0x00, 0x00, 0x00, 0x00, 0x00, 
  0xC0, 0xFF, 0xFF, 0xFF, 0xFF, 0x03, 0x40, 0x00, 0x00, 0x00, 0x00, 0x02, 
  0x40, 0x00, 0x00, 0x00, 0x00, 0x02, 0x40, 0x00, 0x00, 0x00, 0x00, 0x02, 
  0x40, 0x00, 0x00, 0x00, 0x00, 0x02, 0xC0, 0xFF, 0xFF, 0xFF, 0xFF, 0x03, 
  };
