#define p11701749308_width 48
#define p11701749308_height 48
static char p11701749308_bits[] = {
  0x00, 0x00, 0x00, 0x00, 0x00, 0x00, 0x00, 0x00, 0x00, 0x00, 0x00, 0x00, 
  0x00, 0x00, 0x00, 0x00, 0x00, 0x00, 0x00, 0x00, 0xF8, 0x1F, 0x00, 0x00, 
  0x00, 0x00, 0x04, 0x20, 0x00, 0x00, 0x00, 0x00, 0x02, 0x40, 0x00, 0x00, 
  0x00, 0x00, 0x01, 0x80, 0x00, 0x00, 0x00, 0x80, 0x00, 0x00, 0x01, 0x00, 
  0x00, 0x80, 0x00, 0x00, 0x01, 0x00, 0x00, 0x40, 0x00, 0x00, 0x02, 0x00, 
  0x00, 0x40, 0x00, 0x00, 0x02, 0x00, 0x00, 0x40, 0x00, 0x00, 0x02, 0x00, 
  0x00, 0x40, 0x00, 0x00, 0x02, 0x00, 0x00, 0x40, 0x00, 0x00, 0x02, 0x00, 
  0x00, 0x40, 0x00, 0x00, 0x02, 0x00, 0x00, 0x40, 0x00, 0x00, 0x02, 0x00, 
  0x00, 0x40, 0x00, 0x00, 0x02, 0x00, 0x00, 0x80, 0x00, 0x00, 0x01, 0x00, 
  0x00, 0x80, 0x00, 0x00, 0x01, 0x00, 0x00, 0x00, 0x01, 0x80, 0x00, 0x00, 
  0x00, 0x00, 0x02, 0x40, 0x00, 0x00, 0x00, 0x80, 0x01, 0x80, 0x01, 0x00, 
  0x00, 0x80, 0x00, 0x00, 0x01, 0x00, 0x00, 0x80, 0x00, 0x00, 0x01, 0x00, 
  0x00, 0x80, 0x00, 0x00, 0x01, 0x00, 0x00, 0x80, 0x00, 0x00, 0x01, 0x00, 
  0x00, 0x80, 0x01, 0x80, 0x01, 0x00, 0x00, 0x00, 0x02, 0x40, 0x00, 0x00, 
  0x00, 0x00, 0x02, 0x40, 0x00, 0x00, 0x00, 0x00, 0x02, 0x40, 0x00, 0x00, 
  0x00, 0x00, 0x02, 0x40, 0x00, 0x00, 0x00, 0x00, 0x02, 0x40, 0x00, 0x00, 
  0x00, 0x00, 0x02, 0x40, 0x00, 0x00, 0x00, 0x00, 0x02, 0x40, 0x00, 0x00, 
  0x00, 0x00, 0x02, 0x40, 0x00, 0x00, 0x00, 0x00, 0x02, 0x40, 0x00, 0x00, 
  0x00, 0x00, 0x01, 0x80, 0x00, 0x00, 0x00, 0x00, 0x01, 0x80, 0x00, 0x00, 
  0x00, 0x80, 0xFF, 0xFF, 0x01, 0x00, 0x00, 0x00, 0x00, 0x00, 0x00, 0x00, 
  0x00, 0x00, 0x00, 0x00, 0x00, 0x00, 0x00, 0x00, 0x00, 0x00, 0x00, 0x00, 
  0x00, 0xFE, 0xFF, 0xFF, 0x7F, 0x00, 0x00, 0x02, 0x00, 0x00, 0x40, 0x00, 
  0x00, 0x02, 0x00, 0x00, 0x40, 0x00, 0x00, 0x02, 0x00, 0x00, 0x40, 0x00, 
  0x00, 0x02, 0x00, 0x00, 0x40, 0x00, 0x00, 0xFE, 0xFF, 0xFF, 0x7F, 0x00, 
  };
