#define q11701749346_width 48
#define q11701749346_height 48
static char q11701749346_bits[] = {
  0x00, 0x00, 0xE0, 0x07, 0x00, 0x00, 0x00, 0x00, 0x18, 0x18, 0x00, 0x00, 
  0x00, 0x00, 0x08, 0x10, 0x00, 0x00, 0x00, 0x00, 0x04, 0x20, 0x00, 0x00, 
  0x00, 0x00, 0x04, 0x20, 0x00, 0x00, 0x00, 0x00, 0x04, 0x20, 0x00, 0x00, 
  0x00, 0x00, 0x04, 0x20, 0x00, 0x00, 0x00, 0x00, 0x08, 0x10, 0x00, 0x00, 
  0x00, 0x00, 0x08, 0x10, 0x00, 0x00, 0x00, 0x00, 0x10, 0x08, 0x00, 0x00, 
  0x00, 0x00, 0xE0, 0x07, 0x00, 0x00, 0x00, 0x00, 0x00, 0x00, 0x00, 0x00, 
  0x00, 0xE0, 0x0F, 0xF0, 0x07, 0x00, 0x00, 0x20, 0x08, 0x10, 0x04, 0x00, 
  0x00, 0x10, 0x18, 0x18, 0x08, 0x00, 0x38, 0x10, 0x20, 0x04, 0x08, 0x1C, 
  0x46, 0x08, 0xC0, 0x03, 0x10, 0x62, 0xC1, 0x0F, 0x00, 0x00, 0xF0, 0x83, 
  0x01, 0x00, 0x00, 0x00, 0x00, 0x80, 0x01, 0x00, 0x00, 0x00, 0x00, 0x80, 
  0x01, 0x00, 0x00, 0x00, 0x00, 0x80, 0x01, 0x00, 0x00, 0x00, 0x00, 0x80, 
  0x02, 0x00, 0x00, 0x00, 0x00, 0x40, 0x02, 0x00, 0x00, 0x00, 0x00, 0x40, 
  0x04, 0x00, 0x00, 0x00, 0x00, 0x20, 0x04, 0x00, 0x00, 0x00, 0x00, 0x20, 
  0x08, 0x00, 0x00, 0x00, 0x00, 0x10, 0x08, 0x00, 0x00, 0x00, 0x00, 0x10, 
  0x10, 0x00, 0x00, 0x00, 0x00, 0x08, 0x10, 0x00, 0x00, 0x00, 0x00, 0x08, 
  0x20, 0x00, 0x00, 0x00, 0x00, 0x04, 0x20, 0x00, 0x00, 0x00, 0x00, 0x04, 
  0x40, 0x00, 0x00, 0x00, 0x00, 0x02, 0x40, 0x00, 0x00, 0x00, 0x00, 0x02, 
  0x80, 0x00, 0x00, 0x00, 0x00, 0x01, 0x80, 0x00, 0x00, 0x00, 0x00, 0x01, 
  0x00, 0x01, 0x00, 0x00, 0x80, 0x00, 0x00, 0x01, 0x00, 0x00, 0x80, 0x00, 
  0x00, 0xFE, 0xFF, 0xFF, 0x7F, 0x00, 0x00, 0x00, 0x00, 0x00, 0x00, 0x00, 
  0x00, 0x00, 0x00, 0x00, 0x00, 0x00, 0x00, 0x00, 0x00, 0x00, 0x00, 0x00, 
  0xC0, 0xFF, 0xFF, 0xFF, 0xFF, 0x03, 0x40, 0x00, 0x00, 0x00, 0x00, 0x02, 
  0x40, 0x00, 0x00, 0x00, 0x00, 0x02, 0x40, 0x00, 0x00, 0x00, 0x00, 0x02, 
  0x40, 0x00, 0x00, 0x00, 0x00, 0x02, 0xC0, 0xFF, 0xFF, 0xFF, 0xFF, 0x03, 
  };
