#define r11701749381_width 48
#define r11701749381_height 48
static char r11701749381_bits[] = {
  0x00, 0x00, 0x00, 0x00, 0x00, 0x00, 0x00, 0x00, 0x00, 0x00, 0x00, 0x00, 
  0x00, 0x00, 0x00, 0x00, 0x00, 0x00, 0xC0, 0x7F, 0xFC, 0x3F, 0xFE, 0x03, 
  0x40, 0x40, 0x04, 0x20, 0x02, 0x02, 0x40, 0x40, 0x04, 0x20, 0x02, 0x02, 
  0x40, 0x40, 0x04, 0x20, 0x02, 0x02, 0x40, 0x40, 0x04, 0x20, 0x02, 0x02, 
  0x40, 0x40, 0x04, 0x20, 0x02, 0x02, 0x40, 0xC0, 0x07, 0xE0, 0x03, 0x02, 
  0x40, 0x00, 0x00, 0x00, 0x00, 0x02, 0x40, 0x00, 0x00, 0x00, 0x00, 0x02, 
  0x40, 0x00, 0x00, 0x00, 0x00, 0x02, 0x40, 0x00, 0x00, 0x00, 0x00, 0x02, 
  0x40, 0x00, 0x00, 0x00, 0x00, 0x02, 0x40, 0x00, 0x00, 0x00, 0x00, 0x02, 
  0x40, 0x00, 0x00, 0x00, 0x00, 0x02, 0x40, 0x00, 0x00, 0x00, 0x00, 0x02, 
  0x40, 0x00, 0x00, 0x00, 0x00, 0x02, 0x40, 0x00, 0x00, 0x00, 0x00, 0x02, 
  0x40, 0x00, 0x00, 0x00, 0x00, 0x02, 0xC0, 0x00, 0xE0, 0x07, 0x00, 0x03, 
  0x00, 0x03, 0x20, 0x04, 0xC0, 0x00, 0x00, 0x04, 0x20, 0x04, 0x20, 0x00, 
  0x00, 0x08, 0x10, 0x08, 0x10, 0x00, 0x00, 0x08, 0x10, 0x08, 0x10, 0x00, 
  0x00, 0x08, 0x10, 0x08, 0x10, 0x00, 0x00, 0x08, 0x10, 0x08, 0x10, 0x00, 
  0x00, 0x08, 0x20, 0x04, 0x10, 0x00, 0x00, 0x08, 0x40, 0x02, 0x10, 0x00, 
  0x00, 0x08, 0x80, 0x01, 0x10, 0x00, 0x00, 0x08, 0x00, 0x00, 0x10, 0x00, 
  0x00, 0x08, 0x00, 0x00, 0x10, 0x00, 0x00, 0x08, 0x00, 0x00, 0x10, 0x00, 
  0x00, 0x08, 0x00, 0x00, 0x10, 0x00, 0x00, 0x08, 0x00, 0x00, 0x10, 0x00, 
  0x00, 0x0C, 0x00, 0x00, 0x30, 0x00, 0x00, 0x04, 0x00, 0x00, 0x20, 0x00, 
  0x00, 0xFC, 0xFF, 0xFF, 0x3F, 0x00, 0x00, 0x00, 0x00, 0x00, 0x00, 0x00, 
  0x00, 0x00, 0x00, 0x00, 0x00, 0x00, 0x00, 0x00, 0x00, 0x00, 0x00, 0x00, 
  0xC0, 0xFF, 0xFF, 0xFF, 0xFF, 0x03, 0x40, 0x00, 0x00, 0x00, 0x00, 0x02, 
  0x40, 0x00, 0x00, 0x00, 0x00, 0x02, 0x40, 0x00, 0x00, 0x00, 0x00, 0x02, 
  0x40, 0x00, 0x00, 0x00, 0x00, 0x02, 0xC0, 0xFF, 0xFF, 0xFF, 0xFF, 0x03, 
  };
